<?xml version="1.0" encoding="UTF-8"?>
<svg version="1.1" viewBox="0 0 2048 511" width="625" height="100" xmlns="http://www.w3.org/2000/svg">
<path transform="translate(674,64)" d="m0 0h200l10 9 36 36-2 4-44 44-198 1-20 4-18 8-13 9-10 9-8 9-8 13-6 13-4 14-2 13v17l3 17 5 15 8 15 9 11 5 6 10 8 13 8 10 5 17 5 15 2h11l15-2 17-5 16-8 11-8 10-9 11-14 8-16 5-15 2-12v-24l-3-15-6-16-7-13-8-10-3-3v-2h108l4 10 5 18 4 25 1 26-3 27-6 24-10 25-8 15-10 15-10 13-8 8-4 5-8 7-15 12-18 11-16 8-15 6-21 6-24 4-13 1h-14l-27-3-24-6-21-8-23-12-14-10-10-8-15-14-9-10-12-16-11-19-9-20-7-23-4-21-1-8v-31l3-23 6-23 8-20 8-16 9-14 9-12 12-14 14-13 16-12 15-9 15-8 25-9 22-5z" fill="#7B31FD"/>
<path transform="translate(262,58)" d="m0 0h20l24 2 18 3 22 6 18 7 18 10 14 10 11 9 11 11-1 4-34 34-8 7-25 25-4-1-7-7-15-11-17-8-14-4-15-2h-18l-14 2-16 5-12 6-14 11-7 7-9 13-7 14-5 16-2 11-1 13v11l2 18 4 17 7 16 7 11 9 10 9 8 13 8 11 5 14 4 7 1h29l17-3 12-4 13-7 10-8 8-10 8-16 2-6-88-1v-78l2-1h185l2 1 2 18v30l-2 19-4 20-6 20-8 18-9 17-8 12-8 10-9 10-11 9-10 8-16 10-15 8-21 8-25 6-27 3h-14l-23-2-23-4-26-8-24-11-18-11-12-9-14-12-12-13-12-17-9-16-8-17-7-21-5-24-2-19v-26l3-26 6-25 7-19 8-16 9-15 9-12 9-10 7-8 14-12 18-12 14-8 18-8 18-6 23-5 15-2z" fill="#145EFF"/>
<path transform="translate(268,226)" d="m0 0h186l2 1 2 18v30l-2 19-4 20-6 20-8 18-9 17-8 12-8 10-9 10-11 9-10 8-16 10-15 8-21 8-25 6-27 3h-14l-23-2-18-3-2-2h2v-6l-2-3 3-5v-17l3-4 1-18v-2l4-3v-3h2l-1-14v-3l2-2-3-3-4-1-2-4 2-4 9 2 11 3 7 1h29l17-3 12-4 13-7 10-8 8-10 8-16 2-6-88-1v-78z" fill="#3F49FE"/>
<path transform="translate(761,187)" d="m0 0h108l4 10 5 18 4 25 1 26-3 27-6 24-10 25-8 15-10 15-10 13-8 8-4 5-8 7-15 12-18 11-16 8-15 6-21 6-24 4-13 1h-14l-27-3-4-1v-7l-5-7-3-5-6-14v-3h-2l-3-8 3-22 5-15 5-5 6-4 1-6 9 2 14 3 9 1h11l15-2 17-5 16-8 11-8 10-9 11-14 8-16 5-15 2-12v-24l-3-15-6-16-7-13-8-10-3-3z" fill="#C415FC"/>
<path transform="translate(674,64)" d="m0 0h200l10 9 36 36-2 4-44 44-198 1-16 3-4-1-2-5-5-3-4-5-2-4v-3l-3-1 1-5-5-5v-2l-5-2 1-6h-2v-2l-9-2-4-3-1-7-6-2 1-16 3-8h2v-2l21-7 18-4z" fill="#C416FC"/>
<path transform="translate(945,63)" d="m0 0 100 1-2 55-8 189-1 1h-79l-1-1-10-235v-9z" fill="#C515FC"/>
<path transform="translate(262,58)" d="m0 0h20l24 2 18 3 22 6 18 7 18 10 14 10 11 9 11 11-1 4-34 34-8 7-25 25-4-1-7-7-15-11-17-8-14-4-15-2h-18l-14 2-16 5h-4l-1-5 5-12 2-4h2l-1-6 4-6 3-2 1-7-1-6 1-1v-10l-3-6 1-6 2-3v-2l-7-1-1-4-12-1v-4l-5-1-3-3 4-2 1-4 22-4z" fill="#3F49FF"/>
<path transform="translate(989,340)" d="m0 0h11l14 3 13 7 9 8 8 11 5 11 2 10v12l-3 13-6 12-9 10-8 7-12 6-14 3h-10l-16-4-10-6-10-9-7-9-6-12-2-9v-15l3-12 7-13 14-14 16-8z" fill="#C516FC"/>
<path transform="translate(1683,226)" d="m0 0h12l5 3 11 14 13 17 11 14 2 3v-34l1-17h15l1 1v22l-1 56h-13l-5-5-12-15-12-16-11-14h-1v49l-1 1h-14l-1-1z" fill="#f1f0f5"/>
<path transform="translate(1875,226)" d="m0 0h57l1 1v13l-6 1h-36l-1 17h40l1 1v13h-41l1 18h16l26 1v13l-1 1h-57l-1-1v-77z" fill="#f1f0f5"/>
<path transform="translate(1247,225)" d="m0 0h17l14 4 7 4-6 12-2 1-9-4-9-2h-8l-7 3-3 3v5l5 4 23 5 10 5 5 6 2 5v10l-5 10-7 6-8 3-4 1h-19l-13-4-9-5 2-5 5-8 5 2 11 4 5 1h9l6-2 4-3 1-5-4-4-25-6-10-5-5-7-1-3v-13l6-10 10-6z" fill="#f1f0f5"/>
<path transform="translate(1459,225)" d="m0 0h17l16 5 4 3-1 4-5 9-5-2-9-3-13-1-9 4-1 7v2l9 3 18 4 12 6 4 5 2 7-1 10-5 9-8 6-10 3h-19l-13-4-8-4-1-3 6-10 2-1 11 5 9 2h9l8-3 2-3v-6l-6-3-23-5-9-5-4-5-3-9 1-9 4-8 8-6z" fill="#f1f0f5"/>
<path transform="translate(1331,225)" d="m0 0h16l15 4 6 4-1 4-5 9-14-5-13-1-8 3-2 3v5l5 4 22 5 9 4 5 4 3 6 1 10-3 9-5 6-8 5-8 2h-19l-13-4-9-5 2-6 5-7 15 6 6 1h9l8-3 2-2v-7l-6-3-22-5-10-5-4-5-2-4v-14l4-8 8-6z" fill="#f1f0f5"/>
<path transform="translate(1157,226)" d="m0 0h18l4 8 13 34 13 33 1 3-1 1h-15l-3-5-5-13h-33l-6 17-1 1h-16l1-5 19-49 9-23zm7 17-9 25-1 4h22l-2-9-8-20z" fill="#f1f0f5"/>
<path transform="translate(1615,226)" d="m0 0h17l3 3 11 29 15 39 2 5v3h-15l-3-5-4-11v-2h-34l-6 16-2 2h-15l1-5 15-39 13-33zm8 17-4 9-7 18v2h22l-1-6-9-23z" fill="#f1f0f5"/>
<path transform="translate(1809,225)" d="m0 0h19l12 5 8 6 3 4v3l-10 7-4-1-8-6-5-2h-13l-8 4-3 1-2 4-4 10v11l4 10 8 7 5 2h13l10-5 5-4 11 7v4l-10 9-10 4-4 1h-17l-11-4-9-6-6-7-5-11-1-4v-17l4-11 6-9 6-5 9-5z" fill="#f1f0f5"/>
<path transform="translate(1514,226)" d="m0 0h64v15h-24v63l-1 1h-14l-1-1v-63h-24z" fill="#f1f0f5"/>
<path transform="translate(1394,226)" d="m0 0h14l1 1v77l-1 1h-14l-1-1v-77z" fill="#f1f0f5"/>
</svg>
