<?xml version="1.0" encoding="utf-8"?>
<!-- Generator: Adobe Illustrator 24.0.2, SVG Export Plug-In . SVG Version: 6.00 Build 0)  -->
<svg version="1.1" id="Capa_1" xmlns="https://www.w3.org/2000/svg" xmlns:xlink="https://www.w3.org/1999/xlink" x="0px" y="0px"
	 viewBox="0 0 400 400" style="enable-background:new 0 0 400 400;" xml:space="preserve">
<style type="text/css">
	.st0{fill:#FFFFFF;}
</style>
<title>Burbuja red</title>
<path class="st0" d="M261.4,125.2c-7.5,0-13.6,6.1-13.6,13.6s6.1,13.6,13.6,13.6s13.6-6.1,13.6-13.6S268.9,125.2,261.4,125.2
	L261.4,125.2z"/>
<path class="st0" d="M201,142.6c-31.5,0-57.1,25.6-57.1,57.1s25.6,57.1,57.1,57.1s57.1-25.6,57.1-57.1l0,0
	C258.1,168.2,232.5,142.7,201,142.6z M201,236.3c-20.2,0-36.6-16.4-36.6-36.6s16.4-36.6,36.6-36.6s36.6,16.4,36.6,36.6l0,0
	C237.6,219.9,221.2,236.3,201,236.3L201,236.3z"/>
<path class="st0" d="M246.3,315.7h-92.6c-38.5,0-69.6-31.2-69.7-69.7v-92.6c0-38.5,31.2-69.6,69.6-69.7h92.6
	c38.5,0,69.6,31.2,69.7,69.7V246C315.9,284.5,284.7,315.6,246.3,315.7z M153.7,105.6c-26.4,0-47.8,21.4-47.8,47.8V246
	c0,26.4,21.4,47.8,47.8,47.8h92.6c26.4,0,47.8-21.4,47.8-47.8v-92.6c0-26.4-21.4-47.8-47.8-47.8
	C246.3,105.6,153.7,105.6,153.7,105.6z"/>
<g>
	<g>
		<path class="st0" d="M200,21.8c47.6,0,92.3,18.5,126,52.2s52.2,78.4,52.2,126s-18.5,92.3-52.2,126s-78.4,52.2-126,52.2
			S107.7,359.7,74,326s-52.2-78.4-52.2-126S40.3,107.7,74,74S152.4,21.8,200,21.8 M200,1.8c-50.7,0-101.4,19.4-140.1,58.1
			c-77.4,77.4-77.4,202.9,0,280.3c38.7,38.7,89.4,58.1,140.1,58.1s101.4-19.4,140.1-58.1c77.4-77.4,77.4-202.9,0-280.3
			C301.5,21.2,250.7,1.8,200,1.8L200,1.8z"/>
	</g>
</g>
</svg>
