<?xml version="1.0" encoding="utf-8"?>
<!-- Generator: Adobe Illustrator 24.0.2, SVG Export Plug-In . SVG Version: 6.00 Build 0)  -->
<svg version="1.1" id="Capa_1" xmlns="http://www.w3.org/2000/svg" xmlns:xlink="http://www.w3.org/1999/xlink" x="0px" y="0px"
	 viewBox="0 0 150 150" style="enable-background:new 0 0 150 150;" xml:space="preserve">
<style type="text/css">
	.st0{fill:#FFFFFF;}
</style>
<title>Recurso 4</title>
<g id="Capa_2_1_">
	<g id="Capa_1-2">
		<path class="st0" d="M44.8,105.2c-4.2,0-7.6-3.4-7.5-7.6V52.3c0-4.2,3.4-7.6,7.5-7.6h60.4c4.2,0,7.6,3.4,7.6,7.6v45.3
			c0,4.2-3.4,7.6-7.6,7.6H44.8z M105.2,59.9L77,77.5c-0.3,0.2-0.6,0.4-1,0.4c-0.3,0.1-0.7,0.1-1,0.2c-0.3,0-0.7-0.1-1-0.2
			c-0.4-0.1-0.7-0.2-1-0.4L44.8,59.9v37.8h60.4V59.9z M75,71.2l30.2-18.9H44.8L75,71.2z M44.8,59.9L44.8,59.9z"/>
	</g>
</g>
<g>
	<g>
		<path class="st0" d="M75,7.5c18,0,34.9,7,47.7,19.8S142.4,57,142.4,75s-7,34.9-19.8,47.7S93,142.4,75,142.4s-34.9-7-47.7-19.8
			S7.6,93,7.6,75s7-34.9,19.8-47.7S57,7.5,75,7.5 M75,0C55.8,0,36.6,7.3,22,22C-7.3,51.2-7.3,98.8,22,128c14.6,14.6,33.8,22,53,22
			s38.4-7.3,53-22c29.3-29.3,29.3-76.8,0-106.1C113.4,7.3,94.2,0,75,0L75,0z"/>
	</g>
</g>
</svg>
