<?xml version="1.0" encoding="utf-8"?>
<!-- Generator: Adobe Illustrator 24.0.2, SVG Export Plug-In . SVG Version: 6.00 Build 0)  -->
<svg version="1.1" id="Capa_1" xmlns="http://www.w3.org/2000/svg" xmlns:xlink="http://www.w3.org/1999/xlink" x="0px" y="0px"
	 viewBox="0 0 400 400" style="enable-background:new 0 0 400 400;" xml:space="preserve">
<style type="text/css">
	.st0{fill:#FFFFFF;}
	.st1{fill-rule:evenodd;clip-rule:evenodd;fill:#FFFFFF;}
</style>
<title>Burbuja red</title>
<path class="st0" d="M92.9,312.2l16.5-61.7C78.9,195.4,98.9,125.9,154,95.4S278.6,84.9,309.1,140s10.5,124.6-44.6,155.1
	c-34.1,18.8-75.4,19-109.6,0.5L92.9,312.2z M158,272.5l3.9,2.3c43.9,26.2,100.8,11.8,127-32.1c26.2-43.9,11.8-100.8-32.1-127
	s-100.8-11.8-127,32.1c-17.6,29.5-17.4,66.3,0.4,95.6l2.4,3.9l-9.2,34.4L158,272.5z"/>
<path class="st1" d="M251.4,211.3c-4.7-2.8-10.8-5.9-16.3-3.7c-4.2,1.7-6.9,8.4-9.7,11.8c-1.4,1.7-3.1,2-5.3,1.1
	c-15.5-6.1-28.5-17.2-36.8-31.6c-1.5-2.3-1.2-4.1,0.6-6.2c2.6-3.1,6-6.7,6.7-10.9s-1.3-9.1-3-12.9c-2.2-4.8-4.7-11.6-9.5-14.3
	c-4.4-2.5-10.2-1.1-14.1,2.1c-6.8,5.5-10,14.2-9.9,22.7c0,2.4,0.3,4.9,0.9,7.2c1.5,5.6,3.8,11,6.9,15.9c2.2,3.8,4.6,7.5,7.2,11
	c8.5,11.6,19.1,21.5,31.3,29.1c6.1,3.8,12.7,6.9,19.5,9.3c7.6,2.5,14.5,5.2,22.7,3.6c8.7-1.6,17.2-7,20.6-15.3
	c1.1-2.5,1.4-5.2,1-7.8C263,217.1,255.7,214,251.4,211.3z"/>
<g>
	<g>
		<path class="st0" d="M200,21.8c47.6,0,92.3,18.5,126,52.2s52.2,78.4,52.2,126s-18.5,92.3-52.2,126s-78.4,52.2-126,52.2
			S107.7,359.7,74,326s-52.2-78.4-52.2-126S40.3,107.7,74,74S152.4,21.8,200,21.8 M200,1.8c-50.7,0-101.4,19.4-140.1,58.1
			c-77.4,77.4-77.4,202.9,0,280.3c38.7,38.7,89.4,58.1,140.1,58.1s101.4-19.4,140.1-58.1c77.4-77.4,77.4-202.9,0-280.3
			C301.5,21.2,250.7,1.8,200,1.8L200,1.8z"/>
	</g>
</g>
</svg>
