<?xml version="1.0" encoding="utf-8"?>
<!-- Generator: Adobe Illustrator 24.0.2, SVG Export Plug-In . SVG Version: 6.00 Build 0)  -->
<svg version="1.1" id="Capa_1" xmlns="http://www.w3.org/2000/svg" xmlns:xlink="http://www.w3.org/1999/xlink" x="0px" y="0px"
	 viewBox="0 0 400 400" style="enable-background:new 0 0 400 400;" xml:space="preserve">
<style type="text/css">
	.st0{fill:#FFFFFF;}
</style>
<title>Burbuja red</title>
<g id="g4167">
	<path id="path4156" class="st0" d="M198.1,109.9c0,0-78.9,0-98.7,5.2c-10.8,3.1-19.2,11.6-22.3,22.4c-5.1,19.8-5.1,60.8-5.1,60.8
		s0,41.1,5.1,60.6c3,10.8,11.5,19.3,22.3,22.3c20,5.3,98.6,5.3,98.6,5.3s79,0,98.8-5.1c10.8-2.9,19.3-11.4,22.1-22.3
		c5.3-19.6,5.3-60.6,5.3-60.6s0.1-41.1-5.3-60.9c-2.9-10.8-11.3-19.3-22.1-22.1C277.1,109.9,198.1,109.9,198.1,109.9z M173,160.4
		l65.6,37.9L173,236V160.4z"/>
</g>
<g>
	<g>
		<path class="st0" d="M200,21.8c47.6,0,92.3,18.5,126,52.2s52.2,78.4,52.2,126s-18.5,92.3-52.2,126s-78.4,52.2-126,52.2
			S107.7,359.7,74,326s-52.2-78.4-52.2-126S40.3,107.7,74,74S152.4,21.8,200,21.8 M200,1.8c-50.7,0-101.4,19.4-140.1,58.1
			c-77.4,77.4-77.4,202.9,0,280.3c38.7,38.7,89.4,58.1,140.1,58.1s101.4-19.4,140.1-58.1c77.4-77.4,77.4-202.9,0-280.3
			C301.5,21.2,250.7,1.8,200,1.8L200,1.8z"/>
	</g>
</g>
</svg>
